<svg width="24" height="24" viewBox="0 0 24 24" fill="none" xmlns="http://www.w3.org/2000/svg">
    <g clip-path="url(#clip0_889_1579)">
        <path d="M16.04 11.01H13V7.97998C13 7.42998 12.55 6.97998 12 6.97998C11.45 6.97998 11 7.42998 11 7.97998V11.02H7.96997C7.41997 11.02 6.96997 11.47 6.96997 12.02C6.96997 12.57 7.41997 13.02 7.96997 13.02H11.01V16.05C11.01 16.6 11.46 17.05 12.01 17.05C12.56 17.05 13.01 16.6 13.01 16.05V13.01H16.04C16.59 13.01 17.04 12.56 17.04 12.01C17.04 11.46 16.59 11.01 16.04 11.01Z"
              fill="#55BD6D"/>
        <path d="M19.87 10.2399C20.14 11.4099 20.15 12.6799 19.82 13.9799C19.08 16.9799 16.57 19.3299 13.53 19.8799C7.92001 20.8899 3.09001 16.0099 4.19001 10.3899C4.79001 7.28991 7.27001 4.78991 10.36 4.14991C13.45 3.50991 16.2 4.61991 18.01 6.63991C18.2 6.84991 18.47 6.98991 18.76 6.98991C19.61 6.98991 20.09 5.97991 19.53 5.33991C17.34 2.87991 13.96 1.49991 10.29 2.12991C6.17001 2.83991 2.86001 6.15991 2.17001 10.2799C1.03001 17.1099 6.84001 22.9699 13.66 21.8899C17.67 21.2599 20.83 18.3599 21.77 14.4099C22.15 12.7999 22.14 11.2399 21.81 9.78991C21.7 9.32991 21.3 8.98991 20.83 8.98991C20.17 8.98991 19.72 9.59991 19.86 10.2399H19.87Z"
              fill="#55BD6D"/>
    </g>
    <defs>
        <clipPath id="clip0_889_1579">
            <rect width="24" height="24" fill="white"/>
        </clipPath>
    </defs>
</svg>
